<svg width="1024" height="1024" viewBox="0 0 1024 1024" fill="none" xmlns="http://www.w3.org/2000/svg">
  <defs>
    <linearGradient id="brand_gradient" x1="512" y1="0" x2="512" y2="1024" gradientUnits="userSpaceOnUse">
      <stop stop-color="#26D66E"/>
      <stop offset="1" stop-color="#2EBCC9"/>
    </linearGradient>
    <clipPath id="squircle_clip">
      <rect width="1024" height="1024" rx="220" fill="white"/>
    </clipPath>
  </defs>
  <g clip-path="url(#squircle_clip)">
    <rect width="1024" height="1024" fill="url(#brand_gradient)"/>
    <!-- Shamrock Path: Refined for a more elegant, minimalist look matching the reference -->
    <path d="M512 750C512 750 512 850 512 900" stroke="white" stroke-width="32" stroke-linecap="round" opacity="0.3"/>
    <path d="M512 720C512 720 512 620 512 560C512 500 560 460 620 460C680 460 720 500 720 560C720 620 660 680 512 720Z" stroke="white" stroke-width="32" stroke-linecap="round" stroke-linejoin="round"/>
    <path d="M512 720C512 720 512 620 512 560C512 500 464 460 404 460C344 460 304 500 304 560C304 620 364 680 512 720Z" stroke="white" stroke-width="32" stroke-linecap="round" stroke-linejoin="round"/>
    <path d="M512 300C512 300 412 300 412 400C412 460 462 500 512 540C562 500 612 460 612 400C612 300 512 300 512 300Z" stroke="white" stroke-width="32" stroke-linecap="round" stroke-linejoin="round"/>
    <!-- stem -->
    <path d="M512 540C512 600 512 720 512 800C512 850 480 880 450 900" stroke="white" stroke-width="32" stroke-linecap="round" stroke-linejoin="round"/>
  </g>
</svg>
