<svg width="1024" height="1024" viewBox="0 0 512 512" fill="none" xmlns="http://www.w3.org/2000/svg">
  <defs>
    <linearGradient id="finalGrad" x1="0%" y1="0%" x2="100%" y2="100%">
      <stop offset="0%" style="stop-color:#009B48;stop-opacity:1" />
      <stop offset="100%" style="stop-color:#2EBCC9;stop-opacity:1" />
    </linearGradient>
  </defs>
  <!-- Background with no borders -->
  <rect width="512" height="512" fill="url(#finalGrad)"/>
  
  <!-- Symmetrical continuous-line heart-shamrock (The correct design)
       Centered at 256,260 and scaled down to 50% (scale 1.3) to ensure 
       safe rendering in WhatsApp's various preview formats. -->
  <g transform="translate(256, 260) scale(1.3)">
    <path d="M0 0
             C -20 -10 -45 -40 -45 -60 C -45 -85 -15 -85 0 -65 
             C 15 -85 45 -85 45 -60 C 45 -40 20 -10 0 0
             
             M0 0
             C -15 20 -50 25 -65 40 C -85 55 -65 85 -45 85
             C -25 85 -5 60 0 45
             
             M0 0
             C 15 20 50 25 65 40 C 85 55 65 85 45 85
             C 25 85 5 60 0 45
             
             M0 45 L0 85" 
      stroke="white" stroke-width="14" stroke-linecap="round" stroke-linejoin="round" fill="none"/>
  </g>
</svg>
