<svg width="1024" height="1024" viewBox="0 0 1024 1024" fill="none" xmlns="http://www.w3.org/2000/svg">
  <defs>
    <linearGradient id="brand_gradient" x1="0" y1="0" x2="1024" y2="1024" gradientUnits="userSpaceOnUse">
      <stop stop-color="#4ADE80"/> <!-- Accurate light green -->
      <stop offset="1" stop-color="#0D9488"/> <!-- Accurate teal -->
    </linearGradient>
  </defs>
  
  <!-- Perfect Squircle Background (iOS Constant Curvature Style) -->
  <!-- This path ensures the corners are transparent outside the rounded shape -->
  <path d="M512 0 
           C 151.3 0 0 151.3 0 512 
           C 0 872.7 151.3 1024 512 1024 
           C 872.7 1024 1024 872.7 1024 512 
           C 1024 151.3 872.7 0 512 0 Z" 
        fill="url(#brand_gradient)"/>
  
  <!-- HD Continuous Shamrock Outline - Matching Original Design -->
  <path d="M523 910 
           C 523 850 523 720 450 620
           C 350 580 150 720 150 500
           C 150 350 350 300 512 450
           C 674 300 874 350 874 500
           C 874 720 674 580 574 620
           C 574 620 874 500 874 330
           C 874 150 674 150 512 300
           C 350 150 150 150 150 330
           C 150 500 450 620 450 620" 
        stroke="white" stroke-width="48" stroke-linecap="round" stroke-linejoin="round" fill="none" />
</svg>
