<svg width="1024" height="1024" viewBox="0 0 512 512" fill="none" xmlns="http://www.w3.org/2000/svg">
  <!-- Pure white background square -->
  <rect width="512" height="512" fill="white"/>
  
  <g transform="translate(256, 260) scale(2.2)">
    <path d="M0 0
             C -25 -10 -55 -45 -55 -75 C -55 -105 -10 -100 0 -80 
             C 10 -100 55 -105 55 -75 C 55 -45 25 -10 0 0
             
             M0 0
             C -20 15 -60 25 -85 45 C -110 65 -80 105 -50 105
             C -30 105 -5 75 0 55
             
             M0 0
             C 20 15 60 25 85 45 C 110 65 80 105 50 105
             C 30 105 5 75 0 55
             
             M0 55 L0 100" 
      stroke="#009B48" stroke-width="10" stroke-linecap="round" stroke-linejoin="round" fill="none"/>
  </g>
</svg>
