<svg width="1024" height="1024" viewBox="0 0 256 256" fill="none" xmlns="http://www.w3.org/2000/svg">
  <defs>
    <linearGradient id="finalGrad" x1="0%" y1="0%" x2="100%" y2="100%">
      <stop offset="0%" style="stop-color:#009B48;stop-opacity:1" />
      <stop offset="100%" style="stop-color:#2EBCC9;stop-opacity:1" />
    </linearGradient>
  </defs>
  <!-- Full square background - DEFINITELY no white frame -->
  <rect width="256" height="256" fill="url(#finalGrad)"/>
  
  <!-- Official Shamrock Path (High Fidelity Restoration) -->
  <path d="M128 205 C128 185 128 165 128 145 
           C155 145 185 125 185 100 C185 75 160 65 145 65 C135 65 128 75 128 75
           C128 75 121 65 111 65 C96 65 71 75 71 100 C71 125 101 145 128 145
           C105 150 90 170 90 190 C90 210 110 220 128 220 C146 220 166 210 166 190 C166 170 151 150 128 145" 
    stroke="white" stroke-width="8" stroke-linecap="round" stroke-linejoin="round" fill="none"/>
</svg>
