<svg width="512" height="512" viewBox="0 0 512 512" fill="none" xmlns="http://www.w3.org/2000/svg">
  <defs>
    <linearGradient id="iconGrad" x1="0%" y1="0%" x2="100%" y2="100%">
      <stop offset="0%" style="stop-color:#009B48;stop-opacity:1" />
      <stop offset="100%" style="stop-color:#2EBCC9;stop-opacity:1" />
    </linearGradient>
  </defs>
  <!-- Full bleed background to fix iOS/Android borders -->
  <rect width="512" height="512" fill="url(#iconGrad)"/>
  
  <!-- Symmetrical loop-style shamrock (faithful to logo_final.png) -->
  <g transform="translate(256, 260) scale(1.6)">
    <path d="M0 0
             C -25 -10 -55 -45 -55 -70 C -55 -100 -10 -95 0 -75 
             C 10 -95 55 -100 55 -70 C 55 -45 25 -10 0 0
             
             M0 0
             C -20 15 -60 25 -80 45 C -100 65 -75 100 -50 100
             C -25 100 -5 70 0 50
             
             M0 0
             C 20 15 60 25 80 45 C 100 65 75 100 50 100
             C 25 100 5 70 0 50
             
             M0 50 L0 100" 
      stroke="white" stroke-width="14" stroke-linecap="round" stroke-linejoin="round" fill="none"/>
  </g>
</svg>
