<svg width="512" height="512" viewBox="0 0 512 512" fill="none" xmlns="http://www.w3.org/2000/svg">
  <defs>
    <linearGradient id="iconGradFinal" x1="0%" y1="0%" x2="100%" y2="100%">
      <stop offset="0%" style="stop-color:#009B48;stop-opacity:1" />
      <stop offset="100%" style="stop-color:#2EBCC9;stop-opacity:1" />
    </linearGradient>
  </defs>
  <!-- Full bleed background -->
  <rect width="512" height="512" fill="url(#iconGradFinal)"/>
  
  <g transform="translate(256, 280) scale(2)">
    <!-- Stem -->
    <path d="M0 0 Q 0 40 0 70" stroke="white" stroke-width="8" stroke-linecap="round" fill="none"/>
    
    <!-- Leaves -->
    <g transform="rotate(0)">
      <path d="M0 0 C -40 -15 -45 -60 0 -60 C 45 -60 40 -15 0 0 Z" stroke="white" stroke-width="8" stroke-linecap="round" stroke-linejoin="round" fill="none"/>
    </g>
    <g transform="rotate(120)">
      <path d="M0 0 C -40 -15 -45 -60 0 -60 C 45 -60 40 -15 0 0 Z" stroke="white" stroke-width="8" stroke-linecap="round" stroke-linejoin="round" fill="none"/>
    </g>
    <g transform="rotate(240)">
      <path d="M0 0 C -40 -15 -45 -60 0 -60 C 45 -60 40 -15 0 0 Z" stroke="white" stroke-width="8" stroke-linecap="round" stroke-linejoin="round" fill="none"/>
    </g>
  </g>
</svg>
