<svg width="512" height="512" viewBox="0 0 512 512" fill="none" xmlns="http://www.w3.org/2000/svg">
  <defs>
    <linearGradient id="brandGrad" x1="0%" y1="0%" x2="100%" y2="100%">
      <stop offset="0%" style="stop-color:#009B48;stop-opacity:1" />
      <stop offset="100%" style="stop-color:#2EBCC9;stop-opacity:1" />
    </linearGradient>
  </defs>
  <!-- Full bleed background to fill the entire icon square -->
  <rect width="512" height="512" fill="url(#brandGrad)"/>
  
  <g transform="translate(256, 275) scale(2.0)">
    <!-- High-fidelity shamrock path (official heart-loop style) -->
    <path d="M0 0
             C -25 -10 -55 -45 -55 -75 C -55 -105 -10 -100 0 -80 
             C 10 -100 55 -105 55 -75 C 55 -45 25 -10 0 0
             
             M0 0
             C -20 15 -60 25 -85 45 C -110 65 -80 105 -50 105
             C -30 105 -5 75 0 55
             
             M0 0
             C 20 15 60 25 85 45 C 110 65 80 105 50 105
             C 30 105 5 75 0 55
             
             M0 55 L0 95" 
      stroke="white" stroke-width="12" stroke-linecap="round" stroke-linejoin="round" fill="none"/>
  </g>
</svg>
