<svg width="256" height="256" viewBox="0 0 256 256" fill="none" xmlns="http://www.w3.org/2000/svg">
  <g transform="translate(128, 130) scale(0.9)">
    <path d="M0 0
             C -20 -10 -45 -40 -45 -60 C -45 -85 -15 -85 0 -65 
             C 15 -85 45 -85 45 -60 C 45 -40 20 -10 0 0
             
             M0 0
             C -15 20 -50 25 -65 40 C -85 55 -65 85 -45 85
             C -25 85 -5 60 0 45
             
             M0 0
             C 15 20 50 25 65 40 C 85 55 65 85 45 85
             C 25 85 5 60 0 45
             
             M0 45 L0 85" 
      stroke="#009B48" stroke-width="14" stroke-linecap="round" stroke-linejoin="round" fill="none"/>
  </g>
</svg>
